<?xml version="1.0" encoding="utf-8"?>
<!-- Generator: Adobe Illustrator 17.1.0, SVG Export Plug-In . SVG Version: 6.00 Build 0)  -->
<!DOCTYPE svg PUBLIC "-//W3C//DTD SVG 1.1//EN" "http://www.w3.org/Graphics/SVG/1.1/DTD/svg11.dtd">
<svg version="1.1" id="logo_basis" xmlns="http://www.w3.org/2000/svg" xmlns:xlink="http://www.w3.org/1999/xlink" x="0px" y="0px"
	 viewBox="0 0 424 244" enable-background="new 0 0 424 244" xml:space="preserve">
<g>
	<path fill="#231F20" d="M33.36,47.923c0-11.16,4.5-18.299,16.02-18.299c9.359,0,13.919,4.74,14.339,13.919H55.2
		c-0.3-4.68-2.16-6.78-6.3-6.78c-5.82,0-6.96,4.14-6.96,10.859s1.14,10.86,7.08,10.86c4.2,0,5.879-2.04,6.18-6.72h8.52
		c-0.6,9.06-5.28,13.859-14.759,13.859C37.74,65.623,33.36,58.903,33.36,47.923z"/>
	<path fill="#231F20" d="M69.96,51.703c0-10.979,7.8-14.1,14.819-14.1c7.08,0,14.459,3.18,14.459,13.859
		c0,10.979-7.8,14.16-14.819,14.16C77.399,65.623,69.96,62.442,69.96,51.703z M90.899,51.583c0-5.34-2.28-7.44-6.299-7.44
		c-4.02,0-6.3,2.1-6.3,7.44s2.28,7.44,6.3,7.44C88.619,59.023,90.899,56.923,90.899,51.583z"/>
	<path fill="#231F20" d="M105.899,51.643c0-10.02,5.46-14.04,11.28-14.04c4.379,0,7.02,2.28,8.04,3.48V25.664h8.04v39.358h-7.14
		v-3.6c-1.32,1.92-4.38,4.2-8.939,4.2C110.939,65.623,105.899,61.303,105.899,51.643z M125.219,56.923v-10.68
		c-1.02-0.96-2.88-1.98-5.34-1.98c-4.08,0-5.64,2.82-5.64,7.32s1.56,7.32,5.64,7.32C122.339,58.903,124.199,57.883,125.219,56.923z"
		/>
	<path fill="#231F20" d="M143.939,58.963h9.06v-14.7h-9.06v-6.06h17.099v20.759h8.22v6.06h-25.319V58.963z M152.278,25.664h9.48
		v8.28h-9.48V25.664z"/>
	<path fill="#231F20" d="M179.999,38.204h7.14v3.6c1.32-1.979,4.08-4.2,8.64-4.2c4.8,0,9.419,2.46,9.419,10.8v16.619h-8.04V49.843
		c0-3.78-0.96-5.52-4.2-5.52c-2.16,0-3.72,0.72-4.92,1.92v18.779h-8.04V38.204z"/>
	<path fill="#231F20" d="M214.498,66.103h7.68c0.24,2.52,1.2,4.8,5.58,4.8c4.92,0,5.46-2.88,5.46-6.12v-4.14
		c-1.32,1.5-3.6,3.36-7.8,3.36c-6.419,0-11.52-4.32-11.52-13.08c0-8.819,5.22-13.319,11.58-13.319c4.32,0,7.38,2.1,8.64,4.02v-3.42
		h7.14v27.239c0,7.62-4.979,11.28-13.919,11.28C221.698,76.722,214.798,75.282,214.498,66.103z M233.217,55.483v-9.36
		c-1.14-1.02-2.76-1.98-5.22-1.98c-4.08,0-5.76,2.64-5.76,6.66c0,4.02,1.68,6.66,5.76,6.66
		C230.458,57.463,232.077,56.503,233.217,55.483z"/>
	<path fill="#231F20" d="M247.917,65.022h33.359v6.959h-33.359V65.022z"/>
	<path fill="#231F20" d="M41.4,125.143v-8.88h-8.34v-6.06h8.34v-12.54h8.04v12.54h13.259v6.06H49.44v8.58
		c0,4.32,0.84,6.12,4.86,6.12c2.76,0,5.34-0.84,7.14-1.56v6.3c-1.98,0.9-5.1,1.92-9.18,1.92
		C45.18,137.623,41.4,134.502,41.4,125.143z"/>
	<path fill="#231F20" d="M72,97.664h8.04v15.479c1.14-1.38,3.3-3.54,7.919-3.54c4.92,0,9.24,2.46,9.24,10.8v16.619h-8.04v-15.179
		c0-3.78-0.96-5.52-4.2-5.52c-2.64,0-4.26,1.2-4.92,1.92v18.779H72V97.664z"/>
	<path fill="#231F20" d="M106.14,123.763c0-10.8,7.5-14.16,14.699-14.16c7.439,0,14.219,3.54,14.219,13.979v1.38h-20.759
		c0,3.84,1.86,6.6,6.78,6.6c3,0,5.22-1.02,5.58-2.94h8.28c-1.44,6.72-7.44,9-13.919,9
		C112.679,137.623,106.14,133.843,106.14,123.763z M126.779,120.103c-0.84-3.42-3.48-4.439-6.18-4.439c-2.7,0-5.339,1.02-6.18,4.439
		H126.779z"/>
	<path fill="#231F20" d="M139.919,137.022h33.359v6.959h-33.359V137.022z"/>
	<path fill="#231F20" d="M36,174.284h8.339v13.56h8.52v-13.56h8.339v34.739H52.86v-14.219h-8.52v14.219H36V174.284z"/>
	<path fill="#231F20" d="M72,198.823v-16.619h8.04v15.179c0,3.78,0.96,5.52,4.2,5.52c2.16,0,3.72-0.72,4.92-1.92v-18.779h8.04
		v26.819h-7.14v-3.6c-1.32,1.98-4.08,4.2-8.64,4.2C76.62,209.623,72,207.163,72,198.823z"/>
	<path fill="#231F20" d="M105.239,182.204h6v3.66c0.84-1.5,2.82-4.26,6.72-4.26c3.18,0,4.86,1.92,5.46,3.9
		c0.48-0.78,2.4-3.9,6.479-3.9c4.86,0,6.06,4.44,6.06,9.06v18.359h-6.899v-17.519c0-2.4-0.42-3.72-1.98-3.72
		c-1.5,0-2.7,1.32-3.06,1.92v19.319h-6.839v-17.519c0-2.4-0.42-3.72-1.98-3.72c-1.5,0-2.7,1.32-3.06,1.92v19.319h-6.9V182.204z"/>
	<path fill="#231F20" d="M142.199,201.883c0-6.12,5.64-7.86,11.459-7.86c3.06,0,5.76,0.48,7.08,0.84v-2.04
		c0-2.88-0.66-5.04-4.98-5.04c-3.06,0-5.16,1.08-5.16,3.84h-7.5c0-7.08,5.64-10.02,13.139-10.02c6.9,0,12.479,2.52,12.479,10.56
		v10.02c0,1.02,0.42,1.38,1.44,1.38c0.66,0,1.62-0.18,2.1-0.3v5.16c-1.2,0.6-3.48,1.2-5.58,1.2c-3.54,0-4.68-1.68-4.68-3.84v-0.54
		c-1.38,1.74-4.38,4.38-10.08,4.38C146.639,209.623,142.199,207.283,142.199,201.883z M160.738,202.123v-2.76
		c-0.84-0.18-3.3-0.36-5.22-0.36c-3.06,0-5.28,0.48-5.28,2.64c0,1.74,1.44,2.46,3.84,2.46
		C157.318,204.103,159.898,202.843,160.738,202.123z"/>
	<path fill="#231F20" d="M179.999,182.204h7.14v3.6c1.32-1.979,4.08-4.2,8.64-4.2c4.8,0,9.419,2.46,9.419,10.8v16.619h-8.04v-15.179
		c0-3.78-0.96-5.52-4.2-5.52c-2.16,0-3.72,0.72-4.92,1.92v18.779h-8.04V182.204z"/>
	<path fill="#231F20" d="M215.938,202.963h9.06v-14.7h-9.06v-6.06h17.099v20.759h8.22v6.06h-25.319V202.963z M224.277,169.664h9.48
		v8.28h-9.48V169.664z"/>
	<path fill="#231F20" d="M257.397,197.143v-8.88h-8.34v-6.06h8.34v-12.54h8.04v12.54h13.259v6.06h-13.259v8.58
		c0,4.32,0.84,6.12,4.86,6.12c2.76,0,5.34-0.84,7.14-1.56v6.3c-1.98,0.9-5.1,1.92-9.18,1.92
		C261.177,209.623,257.397,206.502,257.397,197.143z"/>
	<path fill="#231F20" d="M287.937,202.963h9.06v-14.7h-9.06v-6.06h17.099v20.759h8.22v6.06h-25.319V202.963z M296.276,169.664h9.48
		v8.28h-9.48V169.664z"/>
	<path fill="#231F20" d="M322.137,195.763c0-10.8,7.5-14.16,14.699-14.16c7.439,0,14.219,3.54,14.219,13.979v1.38h-20.759
		c0,3.84,1.86,6.6,6.78,6.6c3,0,5.22-1.02,5.58-2.94h8.28c-1.44,6.72-7.44,9-13.919,9
		C328.676,209.623,322.137,205.843,322.137,195.763z M342.776,192.103c-0.84-3.42-3.48-4.439-6.18-4.439
		c-2.7,0-5.339,1.02-6.18,4.439H342.776z"/>
	<path fill="#231F20" d="M358.136,200.623h8.219c0.24,2.58,2.94,3.3,6.48,3.3c3.12,0,5.88-0.54,5.88-2.46c0-2.22-3.9-2.4-9.18-3.24
		c-5.16-0.84-10.86-2.16-10.86-8.16c0-5.939,5.64-8.459,13.68-8.459c7.02,0,12.72,1.92,13.14,8.52h-8.22
		c-0.36-2.28-3-2.82-5.64-2.82c-2.82,0-4.68,0.6-4.68,2.16c0,1.92,2.94,2.22,9.24,3.06c5.28,0.72,10.859,2.16,10.859,8.28
		c0,6.66-6.779,8.88-14.819,8.82C364.556,209.562,358.316,207.462,358.136,200.623z"/>
</g>
</svg>
